<svg version="1.1" id="Layer_1" xmlns="http://www.w3.org/2000/svg" xmlns:xlink="http://www.w3.org/1999/xlink" x="0px" y="0px"
	 width="100%" viewBox="0 0 360 360" enable-background="new 0 0 360 360" xml:space="preserve">
<path fill="#FFFFFF" opacity="1.000000" stroke="none" 
	d="
M248.000000,361.000000 
	C165.361862,361.000000 83.223724,361.000000 1.042792,361.000000 
	C1.042792,241.070206 1.042792,121.140388 1.042792,1.105288 
	C120.888062,1.105288 240.776245,1.105288 360.832214,1.105288 
	C360.832214,120.999802 360.832214,240.999893 360.832214,361.000000 
	C323.473816,361.000000 285.986908,361.000000 248.000000,361.000000 
M285.004425,156.003128 
	C285.004425,156.003128 285.042603,155.970230 284.704620,155.472275 
	C284.141418,155.285782 283.578186,155.099274 282.674164,154.332565 
	C274.834839,149.837448 266.995544,145.342316 259.133698,140.893433 
	C259.133698,140.893433 259.096008,140.858459 258.775513,140.268723 
	C255.539734,138.474701 252.303955,136.680679 248.703796,134.316711 
	C240.476303,129.540451 232.248795,124.764183 223.610870,119.441032 
	C222.139450,118.908417 220.668045,118.375793 219.158768,117.838379 
	C219.158768,117.838379 219.160828,117.876480 219.242859,117.410568 
	C219.242859,117.410568 219.018204,116.994255 218.589478,116.472092 
	C215.383896,114.692619 212.178299,112.913139 208.391541,110.780319 
	C206.258987,109.524345 204.126419,108.268372 201.606842,106.453430 
	C199.098312,105.262833 196.589767,104.072227 194.007187,102.909218 
	C194.007187,102.909218 194.083633,102.929237 193.920120,102.460632 
	C193.677094,102.203423 193.378815,102.082390 192.465088,101.830971 
	C191.642014,101.222855 190.818924,100.614738 190.000000,100.000000 
	C190.000000,100.000000 189.993362,100.004135 189.669617,99.524117 
	C189.127655,99.397133 188.585709,99.270149 187.449371,98.769279 
	C185.644104,97.806503 183.838837,96.843719 181.756790,95.268463 
	C178.834351,93.527557 175.911926,91.786659 172.995926,90.002121 
	C172.995926,90.002121 172.953751,90.006332 172.799500,89.592682 
	C172.626251,89.309822 172.375061,89.189003 171.451569,88.919373 
	C169.948166,88.019127 168.444778,87.118874 166.450317,85.911316 
	C165.942566,85.664742 165.434814,85.418159 164.328018,84.869148 
	C162.204834,83.608910 160.081665,82.348679 157.526718,80.557076 
	C155.395081,79.690681 153.263428,78.824287 150.974899,77.329369 
	C150.336472,76.841873 149.698029,76.354378 148.774582,75.424370 
	C144.836609,73.976120 140.898651,72.527863 136.238480,70.710297 
	C118.821297,67.701225 102.239418,74.908134 93.798828,89.357880 
	C93.746681,89.530869 93.694527,89.703865 93.220856,90.306488 
	C92.838058,91.212677 92.455261,92.118874 91.679947,93.654205 
	C88.085327,101.124260 88.661850,109.078178 88.802963,117.915039 
	C88.857414,121.944267 88.911858,125.973488 88.798897,130.878860 
	C88.850693,133.254623 88.902489,135.630402 88.794952,138.902939 
	C88.849243,141.936035 88.903534,144.969116 88.810081,148.881119 
	C88.853821,151.255341 88.897560,153.629578 88.803444,156.870361 
	C88.840073,158.914688 88.876709,160.959000 88.786316,163.896317 
	C88.822739,166.598190 88.859154,169.300079 88.780136,172.885117 
	C88.804787,175.260040 88.829437,177.634949 88.747459,180.797913 
	C88.802460,181.853333 88.857468,182.908737 88.816116,184.843628 
	C88.858948,186.901855 88.901779,188.960083 88.811325,191.686386 
	C88.836243,192.139664 88.861153,192.592926 88.520760,193.687271 
	C88.647369,196.130402 88.773979,198.573547 88.804611,201.946655 
	C88.850121,207.621887 88.895630,213.297104 88.827904,219.909531 
	C88.869965,226.938171 88.912025,233.966797 88.836723,241.844604 
	C88.877144,243.555740 88.917564,245.266891 88.830620,247.880768 
	C88.862328,250.902832 88.894028,253.924896 88.667778,257.178406 
	C88.633865,257.288727 88.543915,257.421326 88.577133,257.505005 
	C88.658577,257.710175 88.796814,257.892853 88.828110,258.714752 
	C88.882057,259.132599 88.936005,259.550446 88.864288,260.798523 
	C88.892685,262.195557 88.921082,263.592590 88.579422,265.454559 
	C88.697136,266.627350 88.814857,267.800171 88.842018,269.831116 
	C88.953651,271.549042 89.065285,273.266998 89.039330,275.778076 
	C89.387848,277.517761 89.736366,279.257416 90.096634,281.742737 
	C91.071152,284.132111 92.045670,286.521454 93.037338,289.604218 
	C94.036880,291.039581 95.036430,292.474945 96.156761,294.549591 
	C96.301231,294.711243 96.445702,294.872925 96.706894,295.614136 
	C103.518021,302.543701 111.061722,308.126038 121.591652,309.660553 
	C129.675369,310.327209 137.709305,310.672394 145.014557,306.000610 
	C145.014557,306.000610 144.976471,305.956970 145.671249,305.885101 
	C147.431122,304.918396 149.191010,303.951691 151.642395,302.890564 
	C153.418686,301.834961 155.194977,300.779327 157.635391,299.615295 
	C160.452652,297.757751 163.269913,295.900238 166.704132,293.954346 
	C167.489288,293.340210 168.274429,292.726044 169.775482,291.991547 
	C173.203384,290.001648 176.631287,288.011719 180.717422,285.931152 
	C181.815720,285.200134 182.914017,284.469147 184.683716,283.613007 
	C188.792313,281.078033 192.900894,278.543060 197.634277,275.760345 
	C199.433197,274.532410 201.232101,273.304504 203.748810,271.971191 
	C207.163010,269.913330 210.577209,267.855438 214.666428,265.678864 
	C218.457947,263.163757 222.249481,260.648682 226.785599,258.030884 
	C229.001572,257.003265 231.310135,256.136353 233.418259,254.921555 
	C245.666870,247.863480 257.906891,240.788635 270.067352,233.580322 
	C275.154022,230.565125 280.037964,227.207916 285.712341,223.912689 
	C288.760132,221.818161 291.807892,219.723618 295.493835,217.477417 
	C297.028748,215.007919 298.563660,212.538422 300.049835,210.025803 
	C300.049835,210.025803 300.024506,210.084824 300.476196,209.970459 
	C300.476196,209.970459 300.911194,209.803436 301.512482,209.603500 
	C301.704956,208.795181 301.897430,207.986862 302.773346,206.941223 
	C304.148376,202.303986 305.523407,197.666763 306.979248,192.134933 
	C306.686981,189.013947 306.394714,185.892975 306.101624,182.380753 
	C306.101624,182.380753 305.983856,182.007660 305.997284,181.252426 
	C305.048584,178.820328 304.099915,176.388229 303.037170,173.365067 
	C302.710815,172.890656 302.384460,172.416245 301.997131,171.991653 
	C301.997131,171.991653 302.067749,171.958313 301.923737,171.451767 
	C301.649719,171.269913 301.375671,171.088058 301.175507,170.876511 
	C301.175507,170.876511 301.170959,170.797043 301.138031,170.139603 
	C300.144745,169.061249 299.151428,167.982895 298.143402,166.962982 
	C298.143402,166.962982 298.121613,166.907120 298.147064,166.293671 
	C297.773773,165.833725 297.400452,165.373779 296.837128,164.480606 
	C296.643555,164.208832 296.382538,164.043472 295.787201,163.459137 
	C295.191589,162.965378 294.595978,162.471634 293.747437,161.469925 
	C293.152863,161.024353 292.558319,160.578766 291.595642,159.586349 
	C290.417419,159.020447 289.239197,158.454529 287.994476,157.978775 
	C287.994476,157.978775 288.083588,157.910995 287.776215,157.387833 
	C287.210480,157.215927 286.644714,157.044022 285.995300,156.917572 
	C285.995300,156.917572 286.090485,156.915100 285.937653,156.415665 
	C285.630859,156.261948 285.324097,156.108231 285.004425,156.003128 
z"/>
<path fill="#E889BB" opacity="1.000000" stroke="none" 
	d="
M305.983856,182.007660 
	C305.983856,182.007660 306.101624,182.380753 306.038208,182.960785 
	C303.983185,187.360733 301.991608,191.180679 299.592468,194.999634 
	C290.258972,192.236649 281.011475,190.217514 272.486816,186.528198 
	C261.352783,181.709564 250.790878,175.568924 239.985641,169.579773 
	C239.791702,159.715134 236.175034,156.791840 225.004776,156.699112 
	C224.330063,155.559052 223.664413,154.778610 222.999176,153.539368 
	C223.007721,150.450150 222.830383,147.803375 223.060471,145.192535 
	C223.642349,138.590286 224.860291,137.421295 231.344193,137.032776 
	C236.891235,141.094727 241.867462,145.467957 247.354996,149.060074 
	C253.700974,153.214142 260.305267,157.082916 267.145874,160.344711 
	C275.909790,164.523605 284.498169,169.905243 295.315063,168.025482 
	C296.423370,168.370331 297.211670,168.689728 298.000732,169.340012 
	C298.003174,170.112106 298.004883,170.553299 298.139038,171.306381 
	C299.625977,173.545639 300.945831,175.498627 302.345734,177.392456 
	C303.509583,178.966965 304.767548,180.471909 305.983856,182.007660 
z"/>
<path fill="#E457F5" opacity="1.000000" stroke="none" 
	d="
M285.014069,224.006180 
	C280.037964,227.207916 275.154022,230.565125 270.067352,233.580322 
	C257.906891,240.788635 245.666870,247.863480 233.418259,254.921555 
	C231.310135,256.136353 229.001572,257.003265 226.449814,257.717560 
	C227.001144,255.334915 228.817719,253.145172 228.568695,251.223053 
	C228.140198,247.915771 226.809860,244.556274 225.143616,241.624786 
	C223.392578,238.544220 220.875671,235.876663 218.519135,233.181015 
	C218.035614,232.627930 216.783936,232.731277 215.880402,232.563980 
	C214.475571,232.303864 213.065643,232.071121 211.857971,231.525192 
	C216.593872,226.581375 215.356369,220.582962 216.264008,214.988586 
	C217.406677,214.190338 218.155411,213.399429 218.904144,212.608521 
	C217.894012,212.073563 216.883881,211.538605 215.823181,210.670303 
	C215.812408,209.890625 215.852173,209.444305 216.243958,208.998779 
	C217.063965,208.999741 217.531982,208.999863 218.374939,209.000000 
	C219.499756,209.000504 220.249649,209.001022 221.052536,209.348709 
	C226.433487,212.123352 231.653824,216.254120 237.113312,216.599045 
	C246.474609,217.190445 255.089783,220.208252 264.071259,221.935394 
	C269.641846,223.006638 275.355316,223.335083 281.379730,223.997162 
	C282.505371,223.996628 283.255920,223.995880 284.258362,223.998581 
	C284.678162,224.003418 284.846130,224.004791 285.014069,224.006180 
M270.901947,226.267609 
	C270.957031,226.767319 271.012085,227.267014 271.067139,227.766724 
	C271.514709,227.651794 271.962280,227.536865 272.409851,227.421936 
	C272.106873,226.995331 271.803925,226.568726 270.901947,226.267609 
M231.703339,251.569122 
	C231.989456,251.296036 232.275574,251.022964 232.561707,250.749893 
	C232.448441,250.631531 232.242966,250.403976 232.235184,250.410538 
	C231.933411,250.665359 231.649689,250.941559 231.703339,251.569122 
z"/>
<path fill="#E35AE9" opacity="1.000000" stroke="none" 
	d="
M88.941147,218.972336 
	C88.895630,213.297104 88.850121,207.621887 89.030472,201.177338 
	C90.106453,200.071487 91.005432,199.353973 91.799324,199.455780 
	C103.048386,200.898468 114.283195,202.452332 125.625389,204.440674 
	C125.751686,211.937149 125.774048,218.972244 125.567062,226.268875 
	C124.892548,228.353058 124.447372,230.175674 124.001099,231.999146 
	C124.000000,232.000000 123.998276,232.002319 123.629555,231.927750 
	C122.549568,228.060822 121.838310,224.268478 121.005836,219.829834 
	C119.208984,221.651184 117.508415,223.120392 116.113556,224.837891 
	C112.342636,229.480957 105.937050,230.745392 100.983650,227.567017 
	C97.675346,225.444214 94.378357,223.925812 90.726562,226.784424 
	C90.069977,223.911530 89.505562,221.441940 88.941147,218.972336 
z"/>
<path fill="#E252F4" opacity="1.000000" stroke="none" 
	d="
M211.657883,231.826797 
	C213.065643,232.071121 214.475571,232.303864 215.880402,232.563980 
	C216.783936,232.731277 218.035614,232.627930 218.519135,233.181015 
	C220.875671,235.876663 223.392578,238.544220 225.143616,241.624786 
	C226.809860,244.556274 228.140198,247.915771 228.568695,251.223053 
	C228.817719,253.145172 227.001144,255.334915 226.077515,257.768921 
	C222.249481,260.648682 218.457947,263.163757 214.331299,265.296631 
	C213.997452,263.918091 213.931732,262.916443 214.010803,261.926300 
	C214.541595,255.278534 212.669678,250.224380 205.563980,248.156006 
	C204.100876,247.730118 203.093185,245.916412 201.644882,245.227249 
	C198.347290,243.658142 195.013016,241.937195 191.497849,241.110428 
	C186.761856,239.996536 181.841690,239.665665 177.183044,238.730591 
	C180.378586,234.609467 176.214279,235.630554 174.907349,235.072159 
	C170.658325,233.256851 166.310440,231.672974 162.414246,229.999939 
	C167.560562,230.685455 169.537842,227.968628 169.810852,223.851349 
	C170.115952,219.250320 169.956406,214.618469 170.137421,209.771225 
	C170.763794,209.365753 171.251801,209.189072 171.819641,209.472748 
	C172.228256,215.955643 172.557068,221.978165 172.565369,228.003601 
	C171.739960,228.399414 171.235062,228.792313 170.730164,229.185242 
	C171.860733,229.773666 172.991318,230.362091 174.433975,231.002991 
	C182.354202,235.952759 189.164047,233.544464 192.279282,224.832047 
	C192.604721,224.471375 192.540588,224.234726 192.188202,223.588882 
	C192.246216,219.417374 192.334625,215.709656 192.721130,211.997971 
	C193.617676,211.985641 194.216141,211.977280 194.875931,212.430771 
	C194.953552,215.524384 194.963074,218.156174 194.987335,220.787842 
	C195.086594,231.549988 202.020996,236.140381 211.657883,231.826797 
M183.389740,237.201996 
	C183.785126,237.206131 184.180496,237.210266 184.575897,237.214401 
	C184.577499,237.050369 184.590057,236.743744 184.579117,236.742905 
	C184.185516,236.712677 183.789703,236.710983 183.389740,237.201996 
z"/>
<path fill="#DE4BF3" opacity="1.000000" stroke="none" 
	d="
M177.000565,238.998749 
	C181.841690,239.665665 186.761856,239.996536 191.497849,241.110428 
	C195.013016,241.937195 198.347290,243.658142 201.644882,245.227249 
	C203.093185,245.916412 204.100876,247.730118 205.563980,248.156006 
	C212.669678,250.224380 214.541595,255.278534 214.010803,261.926300 
	C213.931732,262.916443 213.997452,263.918091 213.993805,265.355988 
	C210.577209,267.855438 207.163010,269.913330 203.386154,271.627472 
	C202.814041,268.841827 203.555679,265.207428 202.237274,264.155945 
	C194.924515,258.323669 186.855789,253.770004 176.915588,253.613892 
	C175.672119,252.819550 174.526230,252.113297 173.348831,252.056168 
	C169.775177,251.882736 166.045105,252.588531 162.638916,251.806503 
	C155.998383,250.281937 149.536484,247.979248 143.282471,245.707489 
	C147.949036,244.686539 152.353027,244.055634 156.713974,243.204315 
	C163.491562,241.881256 170.239853,240.408218 177.000565,238.998749 
z"/>
<path fill="#E784C6" opacity="1.000000" stroke="none" 
	d="
M294.995117,168.000000 
	C284.498169,169.905243 275.909790,164.523605 267.145874,160.344711 
	C260.305267,157.082916 253.700974,153.214142 247.354996,149.060074 
	C241.867462,145.467957 236.891235,141.094727 231.309723,136.684357 
	C228.287170,132.868332 225.643890,129.434708 223.000458,125.595856 
	C223.340622,123.456406 223.680969,121.722160 224.021301,119.987915 
	C232.248795,124.764183 240.476303,129.540451 248.780884,134.883072 
	C251.523651,138.666306 254.094849,142.062057 259.096008,140.858459 
	C259.096008,140.858459 259.133698,140.893433 259.099915,141.248611 
	C263.844208,148.666153 270.715210,153.027435 278.221100,156.642075 
	C279.931549,157.465775 281.357574,158.880112 282.526062,159.737549 
	C284.867889,160.510727 286.872772,161.194153 288.892059,161.831818 
	C290.244629,162.258926 291.617767,162.621078 292.988647,163.257446 
	C292.995605,163.502594 293.003662,163.993286 293.029785,164.319794 
	C293.702301,165.764206 294.348694,166.882095 294.995117,168.000000 
z"/>
<path fill="#D643F3" opacity="1.000000" stroke="none" 
	d="
M176.998779,253.998779 
	C186.855789,253.770004 194.924515,258.323669 202.237274,264.155945 
	C203.555679,265.207428 202.814041,268.841827 203.027252,271.680176 
	C201.232101,273.304504 199.433197,274.532410 196.990097,275.735870 
	C181.013962,267.121887 164.335938,263.377411 146.755798,261.725220 
	C143.740448,260.417938 139.736160,261.468719 139.440765,257.000000 
	C148.818619,256.351593 157.759094,255.731003 166.694168,255.040817 
	C170.135330,254.775009 173.564270,254.350830 176.998779,253.998779 
z"/>
<path fill="#C940F2" opacity="1.000000" stroke="none" 
	d="
M146.999802,262.001709 
	C164.335938,263.377411 181.013962,267.121887 196.677704,275.859741 
	C192.900894,278.543060 188.792313,281.078033 184.269409,283.354401 
	C179.777115,281.197540 175.745865,279.188324 171.603302,277.443329 
	C169.177689,276.421570 166.622345,275.571930 164.042435,275.077545 
	C155.965088,273.529785 147.752518,272.573792 139.788422,270.598114 
	C135.965469,269.649750 132.583359,266.924316 129.271103,264.716187 
	C133.409714,264.277344 137.299347,264.314697 141.139496,263.896973 
	C143.138000,263.679565 145.049179,262.659302 146.999802,262.001709 
z"/>
<path fill="#DF56E8" opacity="1.000000" stroke="none" 
	d="
M88.884521,219.440933 
	C89.505562,221.441940 90.069977,223.911530 90.726562,226.784424 
	C94.378357,223.925812 97.675346,225.444214 100.983650,227.567017 
	C105.937050,230.745392 112.342636,229.480957 116.113556,224.837891 
	C117.508415,223.120392 119.208984,221.651184 121.005836,219.829834 
	C121.838310,224.268478 122.549568,228.060822 123.684235,232.066315 
	C124.193649,232.328766 124.279671,232.378082 124.365692,232.427414 
	C124.244530,232.284378 124.123360,232.141342 124.002197,231.998306 
	C124.447372,230.175674 124.892548,228.353058 125.718903,226.587524 
	C128.763977,233.070587 134.003601,233.865097 139.960449,233.357666 
	C138.673004,234.207855 137.460587,234.846390 136.169296,235.155914 
	C134.994431,235.437531 133.733887,235.361710 131.133331,235.535553 
	C134.007935,236.998322 135.419937,237.716812 136.831940,238.435318 
	C136.730881,238.886002 136.629837,239.336685 136.528778,239.787369 
	C135.019196,239.858032 133.509598,239.928711 131.561462,239.999390 
	C125.735115,239.516983 120.482445,239.633743 115.340668,241.859497 
	C113.351295,242.720642 110.496864,243.348068 108.696686,242.564789 
	C102.196960,239.736694 95.701088,239.417938 88.954086,240.995438 
	C88.912025,233.966797 88.869965,226.938171 88.884521,219.440933 
z"/>
<path fill="#1BF3FE" opacity="1.000000" stroke="none" 
	d="
M88.971687,117.001152 
	C88.661850,109.078178 88.085327,101.124260 92.146065,93.542389 
	C94.353447,94.015938 96.078636,95.038254 97.839043,95.102974 
	C102.705093,95.281860 107.603401,94.778549 112.455673,95.080208 
	C116.993797,95.362328 121.489265,96.330444 126.402817,96.997276 
	C127.867302,97.000534 128.932480,97.003166 130.048096,97.346046 
	C131.180939,98.667152 132.328781,99.585617 133.333908,100.640129 
	C136.907745,104.389549 140.974564,107.824303 143.808365,112.075661 
	C146.152603,115.592567 146.323883,119.970253 141.712585,122.713043 
	C141.278442,120.463005 141.578033,118.326851 140.908340,116.557564 
	C139.479034,112.781403 138.495178,107.261986 135.655609,105.869965 
	C124.064865,100.187973 112.542160,92.586609 98.397240,99.725365 
	C94.348122,101.768898 94.476906,103.734657 95.891212,106.561363 
	C98.035370,110.846794 100.265190,115.177887 103.112518,119.002808 
	C107.725395,125.199463 112.451706,131.677185 120.378204,133.864517 
	C123.004990,134.589371 124.022423,135.891403 124.944214,138.340057 
	C124.970078,139.475159 124.930565,140.234528 124.505203,140.995987 
	C123.461441,140.957825 122.718452,141.104553 122.158173,140.849670 
	C111.108994,135.823212 102.414307,127.667068 93.699333,119.508194 
	C92.442589,118.331619 90.563034,117.820312 88.971687,117.001152 
z"/>
<path fill="#886AF2" opacity="1.000000" stroke="none" 
	d="
M166.087173,294.042664 
	C163.269913,295.900238 160.452652,297.757751 157.228424,299.336304 
	C156.353394,298.623566 155.955032,298.050110 155.407013,297.776581 
	C144.567307,292.366699 132.721848,290.854797 120.947174,288.613525 
	C119.956062,287.526428 118.997688,286.770874 117.651382,286.004578 
	C115.504242,285.654816 113.745018,285.315796 111.930840,284.627899 
	C105.060677,279.346497 97.311523,276.695007 89.176910,274.984924 
	C89.065285,273.266998 88.953651,271.549042 89.271576,269.448456 
	C95.134201,270.709290 100.567276,272.352814 106.223663,274.288696 
	C110.669205,275.923523 114.953949,277.099091 119.097839,278.650787 
	C124.248077,280.579346 129.199127,283.055695 134.385452,284.868408 
	C142.145798,287.580780 150.013580,289.995850 157.884003,292.377625 
	C160.542847,293.182281 163.348572,293.501587 166.087173,294.042664 
z"/>
<path fill="#AA50EF" opacity="1.000000" stroke="none" 
	d="
M180.059189,286.021820 
	C176.631287,288.011719 173.203384,290.001648 169.264832,291.711182 
	C167.148621,290.669922 165.581863,289.803284 163.920746,289.193756 
	C163.120667,288.900177 162.020432,289.359100 161.267197,289.015045 
	C158.418640,287.714111 155.796906,285.687775 152.833939,284.912018 
	C145.918427,283.101379 138.676971,282.413666 131.894150,280.248108 
	C122.772736,277.335938 113.958817,273.460663 104.677963,269.858154 
	C99.211838,268.141541 94.080658,266.565582 88.949478,264.989624 
	C88.921082,263.592590 88.892685,262.195557 89.335938,260.395721 
	C92.669006,260.721649 95.570328,261.323181 98.383591,262.205475 
	C104.282288,264.055481 110.134666,266.053192 116.226974,268.263306 
	C120.954140,271.512909 125.866943,273.228729 131.202591,274.279175 
	C139.426346,275.898193 147.521042,278.167145 155.683289,280.106445 
	C160.486267,281.247528 166.944946,280.761566 169.728989,283.743195 
	C173.434967,287.712158 176.500565,286.069305 180.059189,286.021820 
z"/>
<path fill="#BA41F2" opacity="1.000000" stroke="none" 
	d="
M180.388306,285.976501 
	C176.500565,286.069305 173.434967,287.712158 169.728989,283.743195 
	C166.944946,280.761566 160.486267,281.247528 155.683289,280.106445 
	C147.521042,278.167145 139.426346,275.898193 131.202591,274.279175 
	C125.866943,273.228729 120.954140,271.512909 116.217651,267.869537 
	C115.662552,265.135925 115.337685,263.069183 115.418343,261.004303 
	C120.216438,262.338654 124.609024,263.671173 129.001602,265.003662 
	C132.583359,266.924316 135.965469,269.649750 139.788422,270.598114 
	C147.752518,272.573792 155.965088,273.529785 164.042435,275.077545 
	C166.622345,275.571930 169.177689,276.421570 171.603302,277.443329 
	C175.745865,279.188324 179.777115,281.197540 183.933716,283.416962 
	C182.914017,284.469147 181.815720,285.200134 180.388306,285.976501 
z"/>
<path fill="#91C1E6" opacity="1.000000" stroke="none" 
	d="
M172.989487,90.045761 
	C175.911926,91.786659 178.834351,93.527557 182.017639,95.926285 
	C181.526535,100.491249 179.964554,104.440559 180.165314,108.298119 
	C180.959915,123.565857 178.768738,138.571365 176.936050,153.616852 
	C176.758820,155.071838 175.658829,156.414459 174.629532,157.809525 
	C172.495468,157.301147 170.719025,156.792496 168.944611,156.198273 
	C168.946609,156.112671 168.982666,155.945282 169.404449,155.959625 
	C172.707794,156.293732 173.055023,154.560532 173.025253,152.258911 
	C172.950989,146.515884 172.893997,140.768173 173.048370,135.028214 
	C173.150360,131.235870 174.031876,127.435234 173.858902,123.670731 
	C173.479645,115.416519 172.508713,107.190277 172.084030,98.936943 
	C171.932724,95.996529 172.662109,93.010803 172.989487,90.045761 
z"/>
<path fill="#E55BF1" opacity="1.000000" stroke="none" 
	d="
M285.363220,223.959442 
	C284.846130,224.004791 284.678162,224.003418 284.219177,223.693985 
	C282.953644,223.589600 281.979126,223.793274 281.004639,223.996948 
	C275.355316,223.335083 269.641846,223.006638 264.071259,221.935394 
	C255.089783,220.208252 246.474609,217.190445 237.113312,216.599045 
	C231.653824,216.254120 226.433487,212.123352 221.286041,209.075867 
	C222.407776,208.508255 223.429031,208.339417 224.278183,208.646454 
	C236.065933,212.908829 248.508118,212.610901 260.706055,214.084442 
	C267.845123,214.946854 274.906769,216.535995 281.955811,218.023102 
	C285.694916,218.811935 289.474670,220.511856 291.330994,215.005829 
	C292.727539,215.882080 293.791626,216.755585 294.855682,217.629074 
	C291.807892,219.723618 288.760132,221.818161 285.363220,223.959442 
z"/>
<path fill="#DA4FEA" opacity="1.000000" stroke="none" 
	d="
M88.895401,241.420013 
	C95.701088,239.417938 102.196960,239.736694 108.696686,242.564789 
	C110.496864,243.348068 113.351295,242.720642 115.340668,241.859497 
	C120.482445,239.633743 125.735115,239.516983 131.568497,240.367554 
	C134.009384,242.490128 136.004684,244.244568 137.808578,246.270355 
	C134.744370,248.361938 131.871567,250.182190 128.597443,252.001617 
	C126.630234,251.592438 125.018600,251.308762 123.506409,250.754028 
	C117.079086,248.396133 110.679611,245.998886 103.606094,249.997162 
	C98.450439,248.989532 93.704216,247.983780 88.957985,246.978027 
	C88.917564,245.266891 88.877144,243.555740 88.895401,241.420013 
z"/>
<path fill="#D697CB" opacity="1.000000" stroke="none" 
	d="
M208.972717,111.133659 
	C212.178299,112.913139 215.383896,114.692619 218.634323,116.828415 
	C218.839722,117.415321 219.000275,117.645897 219.160828,117.876480 
	C219.160828,117.876480 219.158768,117.838379 219.059097,118.206726 
	C217.404892,119.587173 215.277908,120.244125 214.392487,121.671318 
	C209.979752,128.784210 205.859070,136.088867 206.655594,145.033371 
	C204.871475,145.712906 203.431168,146.358444 201.743774,146.836136 
	C201.319962,146.109497 201.143188,145.550705 200.973129,144.546677 
	C200.724976,141.343674 201.181122,138.259003 200.089996,135.885712 
	C195.776215,126.502831 199.482269,115.627983 208.972717,111.133659 
z"/>
<path fill="#59D4F1" opacity="1.000000" stroke="none" 
	d="
M157.958481,81.088455 
	C160.081665,82.348679 162.204834,83.608910 164.414764,85.249557 
	C162.159744,86.806046 159.817993,87.982124 156.204300,89.796982 
	C157.365540,93.089127 158.562271,96.855377 160.026962,100.514359 
	C161.167023,103.362389 163.493118,105.979073 163.824402,108.866936 
	C165.629532,124.602921 165.839676,140.367828 162.676453,156.104126 
	C161.907242,156.132553 161.465927,156.106415 160.829773,155.801315 
	C159.760040,155.344376 158.885132,155.166397 158.197296,154.735291 
	C159.256302,151.927078 160.810226,149.390640 160.880707,146.813644 
	C161.167557,136.324844 161.014587,125.823586 160.981064,115.327049 
	C160.976868,114.015282 161.118561,112.470055 160.510986,111.431984 
	C157.208420,105.789421 153.788620,100.208832 150.210236,94.737015 
	C148.289444,91.799866 148.530334,89.427612 151.331924,87.448784 
	C152.625107,86.535385 154.173004,85.982582 155.596558,85.270706 
	C154.989594,84.027679 154.500214,83.025429 154.369507,82.019058 
	C155.804932,81.706116 156.881714,81.397285 157.958481,81.088455 
z"/>
<path fill="#76CAEB" opacity="1.000000" stroke="none" 
	d="
M172.992706,90.023941 
	C172.662109,93.010803 171.932724,95.996529 172.084030,98.936943 
	C172.508713,107.190277 173.479645,115.416519 173.858902,123.670731 
	C174.031876,127.435234 173.150360,131.235870 173.048370,135.028214 
	C172.893997,140.768173 172.950989,146.515884 173.025253,152.258911 
	C173.055023,154.560532 172.707794,156.293732 169.411697,155.497055 
	C168.998398,147.533539 168.922714,140.045959 169.019058,132.560593 
	C169.161301,121.510429 169.736099,110.411720 164.866776,100.021339 
	C162.473373,94.914154 163.772507,90.446648 166.941376,86.218628 
	C168.444778,87.118874 169.948166,88.019127 171.856384,89.248222 
	C172.449310,89.789078 172.680161,89.932167 172.953751,90.006332 
	C172.953751,90.006332 172.995926,90.002121 172.992706,90.023941 
z"/>
<path fill="#67CCEE" opacity="1.000000" stroke="none" 
	d="
M166.695847,86.064972 
	C163.772507,90.446648 162.473373,94.914154 164.866776,100.021339 
	C169.736099,110.411720 169.161301,121.510429 169.019058,132.560593 
	C168.922714,140.045959 168.998398,147.533539 168.989899,155.482697 
	C168.982666,155.945282 168.946609,156.112671 168.521149,156.168243 
	C166.398575,156.165726 164.701462,156.107635 163.004349,156.049530 
	C165.839676,140.367828 165.629532,124.602921 163.824402,108.866936 
	C163.493118,105.979073 161.167023,103.362389 160.026962,100.514359 
	C158.562271,96.855377 157.365540,93.089127 156.204300,89.796982 
	C159.817993,87.982124 162.159744,86.806046 164.714294,85.400772 
	C165.434814,85.418159 165.942566,85.664742 166.695847,86.064972 
z"/>
<path fill="#C656E5" opacity="1.000000" stroke="none" 
	d="
M88.894302,247.429398 
	C93.704216,247.983780 98.450439,248.989532 103.652145,250.339142 
	C105.101318,251.472198 106.169991,252.184402 107.074570,253.065140 
	C109.755356,255.675262 112.371437,258.351837 115.012817,261.002441 
	C115.337685,263.069183 115.662552,265.135925 115.996742,267.596436 
	C110.134666,266.053192 104.282288,264.055481 98.383591,262.205475 
	C95.570328,261.323181 92.669006,260.721649 89.398766,259.980591 
	C88.936005,259.550446 88.882057,259.132599 88.945679,258.346985 
	C89.063248,257.979187 89.193474,257.848969 89.322952,257.798798 
	C89.452423,257.748627 89.524605,257.389771 89.524605,257.389771 
	C89.524605,257.389771 89.201180,257.172424 89.138054,257.109070 
	C89.074928,257.045685 88.925728,256.946960 88.925728,256.946960 
	C88.894028,253.924896 88.862328,250.902832 88.894302,247.429398 
z"/>
<path fill="#73A4FA" opacity="1.000000" stroke="none" 
	d="
M88.912468,183.964157 
	C88.857468,182.908737 88.802460,181.853333 89.215714,180.397095 
	C92.234840,179.432190 95.037163,179.360947 97.289574,178.211823 
	C104.112389,174.731018 111.262039,173.851410 118.799591,173.866562 
	C122.728943,173.874466 124.574455,175.175125 124.695526,178.791321 
	C120.791229,179.233246 117.144325,179.468292 113.680893,180.391602 
	C111.712883,180.916260 108.629036,182.475174 108.547447,183.730743 
	C108.394386,186.086273 110.056267,188.559723 111.261566,191.138550 
	C111.863861,191.976715 112.167908,192.660431 112.471962,193.344162 
	C110.989326,193.235321 109.506699,193.126480 107.961594,192.662170 
	C104.264694,190.881302 100.630249,189.455902 96.605835,188.018860 
	C95.104858,187.346863 94.009811,186.657593 92.878670,186.033752 
	C91.573219,185.313766 90.235931,184.651489 88.912468,183.964157 
z"/>
<path fill="#9DBCE3" opacity="1.000000" stroke="none" 
	d="
M174.987183,157.809250 
	C175.658829,156.414459 176.758820,155.071838 176.936050,153.616852 
	C178.768738,138.571365 180.959915,123.565857 180.165314,108.298119 
	C179.964554,104.440559 181.526535,100.491249 182.156036,96.232513 
	C183.838837,96.843719 185.644104,97.806503 187.920288,99.174774 
	C188.925262,99.721565 189.459305,99.862846 189.993362,100.004135 
	C189.993362,100.004135 190.000000,100.000000 189.990219,100.378418 
	C185.889160,106.388550 184.926392,112.672676 184.807449,119.578857 
	C184.672333,127.424553 182.978806,135.233597 182.195038,143.081787 
	C181.758041,147.457809 181.952316,151.897583 181.496170,156.270447 
	C181.391052,157.278046 179.785553,158.129135 178.533722,159.008057 
	C177.126999,158.578995 176.057098,158.194122 174.987183,157.809250 
z"/>
<path fill="#A9B3DE" opacity="1.000000" stroke="none" 
	d="
M178.870514,159.052246 
	C179.785553,158.129135 181.391052,157.278046 181.496170,156.270447 
	C181.952316,151.897583 181.758041,147.457809 182.195038,143.081787 
	C182.978806,135.233597 184.672333,127.424553 184.807449,119.578857 
	C184.926392,112.672676 185.889160,106.388550 189.988144,100.381729 
	C190.818924,100.614738 191.642014,101.222855 192.864578,102.165848 
	C193.483337,102.746613 193.756516,102.889450 194.083633,102.929237 
	C194.083633,102.929237 194.007187,102.909218 194.109802,103.199883 
	C192.796021,107.074379 190.569016,110.562737 190.133331,114.262070 
	C189.247391,121.784332 189.328827,129.420532 189.010376,137.433105 
	C188.816559,139.306030 188.727066,140.778305 188.413864,142.201340 
	C186.889206,149.128891 183.752518,155.785843 184.614410,163.097214 
	C182.472672,161.704605 180.671600,160.378418 178.870514,159.052246 
z"/>
<path fill="#16CAFD" opacity="1.000000" stroke="none" 
	d="
M94.192451,88.984596 
	C102.239418,74.908134 118.821297,67.701225 136.381012,71.151566 
	C134.181992,73.293732 132.072479,75.689781 129.454834,76.563545 
	C121.988449,79.055809 114.243515,80.708595 106.757843,83.150490 
	C103.643227,84.166504 100.907997,86.345505 97.680527,88.024155 
	C96.569145,88.365295 95.777481,88.677948 94.787491,88.986908 
	C94.589165,88.983215 94.192451,88.984596 94.192451,88.984596 
z"/>
<path fill="#9B50F4" opacity="1.000000" stroke="none" 
	d="
M105.012909,269.998779 
	C113.958817,273.460663 122.772736,277.335938 131.894150,280.248108 
	C138.676971,282.413666 145.918427,283.101379 152.833939,284.912018 
	C155.796906,285.687775 158.418640,287.714111 161.267197,289.015045 
	C162.020432,289.359100 163.120667,288.900177 163.920746,289.193756 
	C165.581863,289.803284 167.148621,290.669922 168.906891,291.771362 
	C168.274429,292.726044 167.489288,293.340210 166.395660,293.998505 
	C163.348572,293.501587 160.542847,293.182281 157.884003,292.377625 
	C150.013580,289.995850 142.145798,287.580780 134.385452,284.868408 
	C129.199127,283.055695 124.248077,280.579346 119.097839,278.650787 
	C114.953949,277.099091 110.669205,275.923523 106.188950,273.944122 
	C105.624924,272.204376 105.318916,271.101593 105.012909,269.998779 
z"/>
<path fill="#65AEFA" opacity="1.000000" stroke="none" 
	d="
M125.029739,178.872650 
	C124.574455,175.175125 122.728943,173.874466 118.799591,173.866562 
	C111.262039,173.851410 104.112389,174.731018 97.289574,178.211823 
	C95.037163,179.360947 92.234840,179.432190 89.269028,180.003082 
	C88.829437,177.634949 88.804787,175.260040 89.224487,172.439453 
	C95.294220,169.203186 101.028664,167.240936 107.531258,167.945267 
	C113.488914,168.590561 119.507851,168.670212 125.604660,169.443085 
	C125.624962,172.898987 125.540375,175.910934 125.349335,178.918488 
	C125.242882,178.914108 125.029739,178.872650 125.029739,178.872650 
z"/>
<path fill="#6082F8" opacity="1.000000" stroke="none" 
	d="
M150.950897,302.985016 
	C149.191010,303.951691 147.431122,304.918396 145.319809,305.553680 
	C144.348679,304.338959 143.922699,303.017273 143.077698,302.643921 
	C137.803802,300.313843 132.562637,297.785736 127.073181,296.093414 
	C115.854057,292.634705 104.484734,289.663147 93.020187,286.446869 
	C93.020187,286.960968 93.020187,287.935883 93.020187,288.910828 
	C92.045670,286.521454 91.071152,284.132111 90.515739,281.372925 
	C96.950264,282.338898 102.965683,283.674713 109.040848,285.363434 
	C116.994576,288.809601 124.927460,291.808136 132.770050,295.026672 
	C138.888535,297.537659 144.894775,300.322083 150.950897,302.985016 
z"/>
<path fill="#59BAFB" opacity="1.000000" stroke="none" 
	d="
M125.499771,168.999115 
	C119.507851,168.670212 113.488914,168.590561 107.531258,167.945267 
	C101.028664,167.240936 95.294220,169.203186 89.282204,171.997879 
	C88.859154,169.300079 88.822739,166.598190 89.256134,163.442871 
	C93.864464,162.326401 98.080147,160.813919 102.125053,161.181366 
	C109.964760,161.893524 117.708397,163.663284 125.590935,165.388123 
	C125.626610,166.854034 125.563187,167.926575 125.499771,168.999115 
z"/>
<path fill="#41E3FC" opacity="1.000000" stroke="none" 
	d="
M157.742599,80.822769 
	C156.881714,81.397285 155.804932,81.706116 154.011108,82.046539 
	C151.123260,83.257874 148.962173,84.455894 146.779846,85.613892 
	C140.496628,88.947952 140.722595,90.169014 145.763947,95.067184 
	C149.728973,98.919601 154.960739,102.370094 154.883698,109.266327 
	C154.171280,110.025696 153.580048,110.517532 152.685364,110.857407 
	C147.293045,102.836632 140.799667,96.584457 132.000580,92.624756 
	C134.450882,89.851448 136.700211,87.195953 139.388763,85.105278 
	C142.740555,82.498863 146.454422,80.358070 150.292053,78.004326 
	C150.758682,77.980919 150.945236,77.969414 151.131790,77.957901 
	C153.263428,78.824287 155.395081,79.690681 157.742599,80.822769 
z"/>
<path fill="#21EDFE" opacity="1.000000" stroke="none" 
	d="
M88.887329,117.458099 
	C90.563034,117.820312 92.442589,118.331619 93.699333,119.508194 
	C102.414307,127.667068 111.108994,135.823212 122.158173,140.849670 
	C122.718452,141.104553 123.461441,140.957825 124.567307,141.393204 
	C124.975639,142.857040 124.936035,143.925735 124.513443,144.997452 
	C119.070747,142.786713 114.028557,140.531769 108.946976,138.369400 
	C102.303047,135.542191 95.627975,132.788208 88.966301,130.002716 
	C88.911858,125.973488 88.857414,121.944267 88.887329,117.458099 
z"/>
<path fill="#C2A4D3" opacity="1.000000" stroke="none" 
	d="
M208.682129,110.956985 
	C199.482269,115.627983 195.776215,126.502831 200.089996,135.885712 
	C201.181122,138.259003 200.724976,141.343674 200.628235,144.585999 
	C199.140320,145.643829 198.004013,146.217102 196.031525,147.212234 
	C194.937515,143.528229 193.968445,140.265030 192.998840,136.535431 
	C191.812012,125.087906 194.537659,115.317886 201.993866,107.012390 
	C204.126419,108.268372 206.258987,109.524345 208.682129,110.956985 
z"/>
<path fill="#37D9FD" opacity="1.000000" stroke="none" 
	d="
M88.957825,148.002228 
	C88.903534,144.969116 88.849243,141.936035 89.299469,138.452881 
	C95.850296,139.855499 101.977638,141.485153 107.913589,143.641632 
	C111.685295,145.011856 115.007164,147.914062 118.833366,148.759079 
	C122.768417,149.628159 124.275375,151.247421 123.606308,154.992310 
	C117.762535,153.266434 112.403885,151.079514 106.830864,149.954590 
	C100.980217,148.773590 94.924133,148.610275 88.957825,148.002228 
z"/>
<path fill="#1FD3FD" opacity="1.000000" stroke="none" 
	d="
M98.000244,87.995667 
	C100.907997,86.345505 103.643227,84.166504 106.757843,83.150490 
	C114.243515,80.708595 121.988449,79.055809 129.454834,76.563545 
	C132.072479,75.689781 134.181992,73.293732 136.742111,71.336220 
	C140.898651,72.527863 144.836609,73.976120 148.897217,75.927559 
	C149.013275,76.619003 149.006714,76.807266 148.630829,76.999847 
	C146.841156,77.333260 145.420822,77.662346 143.745605,77.712822 
	C141.743500,77.560272 139.883316,77.341743 138.268311,77.871155 
	C130.661484,80.364754 123.096306,82.993164 115.573738,85.731392 
	C113.292191,86.561890 111.194733,87.898148 108.625488,89.002594 
	C104.825424,88.666840 101.412834,88.331253 98.000244,87.995667 
z"/>
<path fill="#2BE3FD" opacity="1.000000" stroke="none" 
	d="
M123.997169,154.998169 
	C124.275375,151.247421 122.768417,149.628159 118.833366,148.759079 
	C115.007164,147.914062 111.685295,145.011856 107.913589,143.641632 
	C101.977638,141.485153 95.850296,139.855499 89.379135,138.004486 
	C88.902489,135.630402 88.850693,133.254623 88.882599,130.440796 
	C95.627975,132.788208 102.303047,135.542191 108.946976,138.369400 
	C114.028557,140.531769 119.070747,142.786713 124.574905,145.427216 
	C125.118599,150.203339 125.217857,154.552704 125.099533,158.925720 
	C124.590477,158.981461 124.298126,158.998657 124.002602,159.000427 
	C124.000305,158.999878 123.999199,158.995117 124.003998,158.595490 
	C124.004921,157.129959 124.001045,156.064056 123.997169,154.998169 
z"/>
<path fill="#DF90C5" opacity="1.000000" stroke="none" 
	d="
M206.999390,144.999390 
	C205.859070,136.088867 209.979752,128.784210 214.392487,121.671318 
	C215.277908,120.244125 217.404892,119.587173 219.078033,118.209122 
	C220.668045,118.375793 222.139450,118.908417 223.816101,119.714478 
	C223.680969,121.722160 223.340622,123.456406 222.693008,125.745544 
	C215.163132,130.654816 215.365189,137.940277 214.657837,145.036041 
	C212.544098,146.047760 210.774948,147.026184 208.715912,147.862946 
	C207.950470,146.813980 207.474930,145.906677 206.999390,144.999390 
z"/>
<path fill="#4E91F9" opacity="1.000000" stroke="none" 
	d="
M93.028763,289.257507 
	C93.020187,287.935883 93.020187,286.960968 93.020187,286.446869 
	C104.484734,289.663147 115.854057,292.634705 127.073181,296.093414 
	C132.562637,297.785736 137.803802,300.313843 143.077698,302.643921 
	C143.922699,303.017273 144.348679,304.338959 144.972412,305.589600 
	C144.976471,305.956970 145.014557,306.000610 144.580536,305.990387 
	C140.444992,305.670441 136.743484,305.360718 132.993286,304.685730 
	C132.275208,303.416046 131.790756,302.026459 130.905289,301.688904 
	C126.415504,299.977600 121.866661,298.384308 117.252892,297.044495 
	C111.430450,295.353668 105.549873,293.837128 99.632858,292.522217 
	C98.588303,292.290070 97.242599,293.413086 96.035973,293.910309 
	C95.036430,292.474945 94.036880,291.039581 93.028763,289.257507 
z"/>
<path fill="#43CFFC" opacity="1.000000" stroke="none" 
	d="
M123.606308,154.992310 
	C124.001045,156.064056 124.004921,157.129959 123.572273,158.597504 
	C121.182556,158.740051 119.236275,158.396347 117.275002,158.236160 
	C107.832649,157.464890 98.386261,156.743134 88.941299,156.003799 
	C88.897560,153.629578 88.853821,151.255341 88.883957,148.441681 
	C94.924133,148.610275 100.980217,148.773590 106.830864,149.954590 
	C112.403885,151.079514 117.762535,153.266434 123.606308,154.992310 
z"/>
<path fill="#B66DF0" opacity="1.000000" stroke="none" 
	d="
M125.521454,203.979279 
	C114.283195,202.452332 103.048386,200.898468 91.799324,199.455780 
	C91.005432,199.353973 90.106453,200.071487 89.078461,200.712341 
	C88.773979,198.573547 88.647369,196.130402 88.748322,193.346359 
	C88.975883,193.005447 89.070335,193.031555 89.107117,193.408081 
	C91.049461,194.521225 92.926414,195.801376 94.865402,195.903427 
	C105.062263,196.440216 115.274803,196.679337 125.596375,197.443878 
	C125.647720,199.903717 125.584587,201.941498 125.521454,203.979279 
z"/>
<path fill="#6C75F7" opacity="1.000000" stroke="none" 
	d="
M151.296646,302.937805 
	C144.894775,300.322083 138.888535,297.537659 132.770050,295.026672 
	C124.927460,291.808136 116.994576,288.809601 109.416992,285.355713 
	C110.484207,284.988983 111.235001,284.982880 111.985802,284.976807 
	C113.745018,285.315796 115.504242,285.654816 117.676514,286.340576 
	C119.053024,287.439941 120.016464,288.192505 120.979912,288.945068 
	C132.721848,290.854797 144.567307,292.366699 155.407013,297.776581 
	C155.955032,298.050110 156.353394,298.623566 156.896362,299.390503 
	C155.194977,300.779327 153.418686,301.834961 151.296646,302.937805 
z"/>
<path fill="#4EC5FB" opacity="1.000000" stroke="none" 
	d="
M88.872375,156.437073 
	C98.386261,156.743134 107.832649,157.464890 117.275002,158.236160 
	C119.236275,158.396347 121.182556,158.740051 123.567474,158.997131 
	C123.999199,158.995117 124.000305,158.999878 124.024628,159.298355 
	C124.421013,159.997025 124.793076,160.397232 125.200500,160.826141 
	C125.235870,160.854874 125.315445,160.899261 125.471130,161.287323 
	C125.581818,162.781845 125.536827,163.888321 125.491837,164.994781 
	C117.708397,163.663284 109.964760,161.893524 102.125053,161.181366 
	C98.080147,160.813919 93.864464,162.326401 89.319641,162.996384 
	C88.876709,160.959000 88.840073,158.914688 88.872375,156.437073 
z"/>
<path fill="#B7ACD8" opacity="1.000000" stroke="none" 
	d="
M201.800354,106.732910 
	C194.537659,115.317886 191.812012,125.087906 192.599884,136.536560 
	C191.138184,137.005981 190.074890,137.007874 189.011597,137.009766 
	C189.328827,129.420532 189.247391,121.784332 190.133331,114.262070 
	C190.569016,110.562737 192.796021,107.074379 194.146820,103.186089 
	C196.589767,104.072227 199.098312,105.262833 201.800354,106.732910 
z"/>
<path fill="#2FABF9" opacity="1.000000" stroke="none" 
	d="
M121.201729,308.933777 
	C111.061722,308.126038 103.518021,302.543701 96.971191,295.336487 
	C101.684608,296.254089 106.191139,297.272583 110.566750,298.694092 
	C114.963242,300.122437 119.278214,301.837860 123.530762,303.656921 
	C125.486343,304.493469 127.207550,305.877899 129.136917,307.232910 
	C129.438858,307.720825 129.699310,307.903839 130.341309,308.004181 
	C131.090714,308.009491 131.518951,308.011566 131.667145,308.300934 
	C127.991966,308.703430 124.596848,308.818604 121.201729,308.933777 
z"/>
<path fill="#21EDFE" opacity="1.000000" stroke="none" 
	d="
M97.680527,88.024155 
	C101.412834,88.331253 104.825424,88.666840 109.034714,89.003593 
	C112.860786,89.665840 116.149025,89.802887 118.846680,91.135498 
	C121.540138,92.466034 123.642189,94.993759 126.003510,96.996643 
	C121.489265,96.330444 116.993797,95.362328 112.455673,95.080208 
	C107.603401,94.778549 102.705093,95.281860 97.839043,95.102974 
	C96.078636,95.038254 94.353447,94.015938 92.342331,93.227829 
	C92.455261,92.118874 92.838058,91.212677 93.712837,90.043526 
	C94.465149,89.517242 94.725479,89.253922 94.985809,88.990601 
	C95.777481,88.677948 96.569145,88.365295 97.680527,88.024155 
z"/>
<path fill="#DE8BCF" opacity="1.000000" stroke="none" 
	d="
M292.981689,163.012299 
	C291.617767,162.621078 290.244629,162.258926 288.892059,161.831818 
	C286.872772,161.194153 284.867889,160.510727 282.526062,159.737549 
	C281.357574,158.880112 279.931549,157.465775 278.221100,156.642075 
	C270.715210,153.027435 263.844208,148.666153 259.111145,141.225494 
	C266.995544,145.342316 274.834839,149.837448 282.999390,154.889755 
	C283.897278,155.621368 284.469940,155.795792 285.042603,155.970215 
	C285.042603,155.970230 285.004425,156.003128 285.118347,156.209000 
	C285.518372,156.581619 285.804413,156.748352 286.090485,156.915100 
	C286.090485,156.915100 285.995300,156.917572 286.174805,157.173721 
	C286.930725,157.590240 287.507172,157.750610 288.083588,157.910995 
	C288.083588,157.910995 287.994476,157.978775 288.131561,158.237915 
	C289.500336,159.042435 290.732056,159.587814 291.963745,160.133194 
	C292.558319,160.578766 293.152863,161.024353 293.651733,161.838669 
	C293.364563,162.475708 293.173126,162.744003 292.981689,163.012299 
z"/>
<path fill="#3BA0FB" opacity="1.000000" stroke="none" 
	d="
M131.947189,308.013611 
	C131.518951,308.011566 131.090714,308.009491 130.227875,307.793152 
	C129.595200,307.317200 129.342453,307.128845 129.035034,307.013885 
	C127.207550,305.877899 125.486343,304.493469 123.530762,303.656921 
	C119.278214,301.837860 114.963242,300.122437 110.566750,298.694092 
	C106.191139,297.272583 101.684608,296.254089 96.912827,295.046722 
	C96.445702,294.872925 96.301231,294.711243 96.096367,294.229950 
	C97.242599,293.413086 98.588303,292.290070 99.632858,292.522217 
	C105.549873,293.837128 111.430450,295.353668 117.252892,297.044495 
	C121.866661,298.384308 126.415504,299.977600 130.905289,301.688904 
	C131.790756,302.026459 132.275208,303.416046 132.960815,305.002197 
	C132.633759,306.460480 132.290482,307.237061 131.947189,308.013611 
z"/>
<path fill="#8983F7" opacity="1.000000" stroke="none" 
	d="
M111.930840,284.627899 
	C111.235001,284.982880 110.484207,284.988983 109.357254,285.002808 
	C102.965683,283.674713 96.950264,282.338898 90.509865,281.000092 
	C89.736366,279.257416 89.387848,277.517761 89.108124,275.381500 
	C97.311523,276.695007 105.060677,279.346497 111.930840,284.627899 
z"/>
<path fill="#B66DF0" opacity="1.000000" stroke="none" 
	d="
M104.677963,269.858154 
	C105.318916,271.101593 105.624924,272.204376 105.965645,273.651764 
	C100.567276,272.352814 95.134201,270.709290 89.316849,269.019379 
	C88.814857,267.800171 88.697136,266.627350 88.764450,265.222107 
	C94.080658,266.565582 99.211838,268.141541 104.677963,269.858154 
z"/>
<path fill="#DF90C5" opacity="1.000000" stroke="none" 
	d="
M300.000000,195.000610 
	C301.991608,191.180679 303.983185,187.360733 306.038635,183.156403 
	C306.394714,185.892975 306.686981,189.013947 306.689819,192.806244 
	C304.928894,195.980545 303.457458,198.483551 301.658508,201.034729 
	C300.225922,201.720901 299.120911,202.358917 298.009399,202.664001 
	C298.000732,201.886963 297.998535,201.442871 298.268677,200.767334 
	C299.027374,198.690781 299.513702,196.845703 300.000000,195.000610 
z"/>
<path fill="#DA6CE6" opacity="1.000000" stroke="none" 
	d="
M295.174744,217.553253 
	C293.791626,216.755585 292.727539,215.882080 291.311401,214.706726 
	C290.639130,213.934540 290.318939,213.464218 289.996948,212.644409 
	C289.663727,211.198196 289.332336,210.101501 289.439026,209.004074 
	C291.924225,208.998688 293.971344,208.994019 296.253357,209.265533 
	C297.691650,209.717453 298.895081,209.893188 300.098541,210.068909 
	C298.563660,212.538422 297.028748,215.007919 295.174744,217.553253 
z"/>
<path fill="#65AEFA" opacity="1.000000" stroke="none" 
	d="
M131.667145,308.300934 
	C132.290482,307.237061 132.633759,306.460480 133.009506,305.367432 
	C136.743484,305.360718 140.444992,305.670441 144.559601,306.010376 
	C137.709305,310.672394 129.675369,310.327209 121.396690,309.297180 
	C124.596848,308.818604 127.991966,308.703430 131.667145,308.300934 
z"/>
<path fill="#6082F8" opacity="1.000000" stroke="none" 
	d="
M96.995811,188.030518 
	C100.630249,189.455902 104.264694,190.881302 107.490440,192.659210 
	C101.077942,193.018341 95.074142,193.024948 89.070335,193.031555 
	C89.070335,193.031555 88.975883,193.005447 88.930969,193.025818 
	C88.861153,192.592926 88.836243,192.139664 89.321671,191.349640 
	C92.205627,189.984375 96.453987,193.459045 96.995811,188.030518 
z"/>
<path fill="#4E91F9" opacity="1.000000" stroke="none" 
	d="
M96.605835,188.018860 
	C96.453987,193.459045 92.205627,189.984375 89.388321,191.015610 
	C88.901779,188.960083 88.858948,186.901855 88.864288,184.403900 
	C90.235931,184.651489 91.573219,185.313766 92.878670,186.033752 
	C94.009811,186.657593 95.104858,187.346863 96.605835,188.018860 
z"/>
<path fill="#DE8BCF" opacity="1.000000" stroke="none" 
	d="
M300.074188,210.047363 
	C298.895081,209.893188 297.691650,209.717453 296.537628,209.052368 
	C297.063324,206.707657 297.539581,204.852310 298.015869,202.996948 
	C299.120911,202.358917 300.225922,201.720901 301.803711,201.361923 
	C302.214264,203.486816 302.152100,205.332687 302.089905,207.178543 
	C301.897430,207.986862 301.704956,208.795181 301.103638,209.566727 
	C300.471375,209.714905 300.247955,209.899872 300.024506,210.084824 
	C300.024506,210.084824 300.049835,210.025803 300.074188,210.047363 
z"/>
<path fill="#D697CB" opacity="1.000000" stroke="none" 
	d="
M302.431641,207.059875 
	C302.152100,205.332687 302.214264,203.486816 302.131226,201.313766 
	C303.457458,198.483551 304.928894,195.980545 306.649414,193.253540 
	C305.523407,197.666763 304.148376,202.303986 302.431641,207.059875 
z"/>
<path fill="#DF90C5" opacity="1.000000" stroke="none" 
	d="
M305.990570,181.630035 
	C304.767548,180.471909 303.509583,178.966965 302.345734,177.392456 
	C300.945831,175.498627 299.625977,173.545639 298.534210,171.305740 
	C299.588287,170.927841 300.379608,170.862442 301.170959,170.797043 
	C301.170959,170.797043 301.175507,170.876511 301.216736,171.132416 
	C301.527863,171.578323 301.797821,171.768311 302.067749,171.958313 
	C302.067749,171.958313 301.997131,171.991653 302.032288,172.281143 
	C302.428680,173.032455 302.789978,173.494293 303.151245,173.956116 
	C304.099915,176.388229 305.048584,178.820328 305.990570,181.630035 
z"/>
<path fill="#DE8BCF" opacity="1.000000" stroke="none" 
	d="
M258.935760,140.563599 
	C254.094849,142.062057 251.523651,138.666306 248.963074,135.168045 
	C252.303955,136.680679 255.539734,138.474701 258.935760,140.563599 
z"/>
<path fill="#DE8BCF" opacity="1.000000" stroke="none" 
	d="
M295.315063,168.025482 
	C294.348694,166.882095 293.702301,165.764206 293.410645,164.321945 
	C294.528290,163.993240 295.291199,163.988892 296.054077,163.984528 
	C296.382538,164.043472 296.643555,164.208832 296.941162,165.010559 
	C297.403992,165.996048 297.762787,166.451584 298.121613,166.907120 
	C298.121613,166.907120 298.143402,166.962982 298.097137,167.283020 
	C298.033936,168.071732 298.016968,168.540421 298.000000,169.009125 
	C297.211670,168.689728 296.423370,168.370331 295.315063,168.025482 
z"/>
<path fill="#D697CB" opacity="1.000000" stroke="none" 
	d="
M298.000732,169.339996 
	C298.016968,168.540421 298.033936,168.071732 298.104492,167.253799 
	C299.151428,167.982895 300.144745,169.061249 301.154480,170.468323 
	C300.379608,170.862442 299.588287,170.927841 298.401794,170.993866 
	C298.004883,170.553299 298.003174,170.112106 298.000732,169.339996 
z"/>
<path fill="#D697CB" opacity="1.000000" stroke="none" 
	d="
M291.779694,159.859772 
	C290.732056,159.587814 289.500336,159.042435 288.164795,158.192841 
	C289.239197,158.454529 290.417419,159.020447 291.779694,159.859772 
z"/>
<path fill="#D697CB" opacity="1.000000" stroke="none" 
	d="
M295.920654,163.721832 
	C295.291199,163.988892 294.528290,163.993240 293.384521,163.995438 
	C293.003662,163.993286 292.995605,163.502594 292.988647,163.257446 
	C293.173126,162.744003 293.364563,162.475708 293.778168,162.092651 
	C294.595978,162.471634 295.191589,162.965378 295.920654,163.721832 
z"/>
<path fill="#2BE3FD" opacity="1.000000" stroke="none" 
	d="
M149.000168,76.995522 
	C149.006714,76.807266 149.013275,76.619003 149.039719,76.148819 
	C149.698029,76.354378 150.336472,76.841873 151.053345,77.643631 
	C150.945236,77.969414 150.758682,77.980919 150.071198,77.891197 
	C149.293625,77.587288 149.103592,77.322472 149.000168,76.995522 
z"/>
<path fill="#D697CB" opacity="1.000000" stroke="none" 
	d="
M287.929901,157.649414 
	C287.507172,157.750610 286.930725,157.590240 286.216644,157.151001 
	C286.644714,157.044022 287.210480,157.215927 287.929901,157.649414 
z"/>
<path fill="#A9B3DE" opacity="1.000000" stroke="none" 
	d="
M189.831482,99.764130 
	C189.459305,99.862846 188.925262,99.721565 188.217468,99.361725 
	C188.585709,99.270149 189.127655,99.397133 189.831482,99.764130 
z"/>
<path fill="#D697CB" opacity="1.000000" stroke="none" 
	d="
M303.094208,173.660583 
	C302.789978,173.494293 302.428680,173.032455 302.062744,172.256241 
	C302.384460,172.416245 302.710815,172.890656 303.094208,173.660583 
z"/>
<path fill="#D697CB" opacity="1.000000" stroke="none" 
	d="
M284.873596,155.721252 
	C284.469940,155.795792 283.897278,155.621368 283.169800,155.179855 
	C283.578186,155.099274 284.141418,155.285782 284.873596,155.721252 
z"/>
<path fill="#D697CB" opacity="1.000000" stroke="none" 
	d="
M298.134338,166.600403 
	C297.762787,166.451584 297.403992,165.996048 297.036163,165.227173 
	C297.400452,165.373779 297.773773,165.833725 298.134338,166.600403 
z"/>
<path fill="#D697CB" opacity="1.000000" stroke="none" 
	d="
M286.014069,156.665375 
	C285.804413,156.748352 285.518372,156.581619 285.124817,156.184692 
	C285.324097,156.108231 285.630859,156.261948 286.014069,156.665375 
z"/>
<path fill="#DF90C5" opacity="1.000000" stroke="none" 
	d="
M219.201843,117.643524 
	C219.000275,117.645897 218.839722,117.415321 218.848694,117.089493 
	C219.018204,116.994255 219.242859,117.410568 219.201843,117.643524 
z"/>
<path fill="#B66DF0" opacity="1.000000" stroke="none" 
	d="
M88.987717,258.031860 
	C88.796814,257.892853 88.658577,257.710175 88.577133,257.505005 
	C88.543915,257.421326 88.633865,257.288727 88.796753,257.062683 
	C88.925728,256.946960 89.074928,257.045685 89.111053,257.277161 
	C89.147171,257.508667 89.193474,257.848969 89.193474,257.848969 
	C89.193474,257.848969 89.063248,257.979187 88.987717,258.031860 
z"/>
<path fill="#D697CB" opacity="1.000000" stroke="none" 
	d="
M301.995728,171.705048 
	C301.797821,171.768311 301.527863,171.578323 301.179810,171.147263 
	C301.375671,171.088058 301.649719,171.269913 301.995728,171.705048 
z"/>
<path fill="#1FD3FD" opacity="1.000000" stroke="none" 
	d="
M94.787491,88.986908 
	C94.725479,89.253922 94.465149,89.517242 93.923599,89.828720 
	C93.694527,89.703865 93.746681,89.530869 93.995636,89.171234 
	C94.192451,88.984596 94.589165,88.983215 94.787491,88.986908 
z"/>
<path fill="#91C1E6" opacity="1.000000" stroke="none" 
	d="
M172.876617,89.799507 
	C172.680161,89.932167 172.449310,89.789078 172.153580,89.403656 
	C172.375061,89.189003 172.626251,89.309822 172.876617,89.799507 
z"/>
<path fill="#B7ACD8" opacity="1.000000" stroke="none" 
	d="
M194.001877,102.694931 
	C193.756516,102.889450 193.483337,102.746613 193.144684,102.299118 
	C193.378815,102.082390 193.677094,102.203423 194.001877,102.694931 
z"/>
<path fill="#DA6CE6" opacity="1.000000" stroke="none" 
	d="
M300.250366,210.027649 
	C300.247955,209.899872 300.471375,209.714905 300.803009,209.666687 
	C300.911194,209.803436 300.476196,209.970459 300.250366,210.027649 
z"/>
<path fill="#FFFDFF" opacity="1.000000" stroke="none" 
	d="
M211.857971,231.525192 
	C202.020996,236.140381 195.086594,231.549988 194.987335,220.787842 
	C194.963074,218.156174 194.953552,215.524384 194.939240,211.969971 
	C194.904144,203.380173 194.867050,195.713028 194.902557,187.578339 
	C194.985611,181.799240 195.274887,176.469727 194.934113,171.180786 
	C194.531616,164.933868 196.591583,160.212448 202.455521,157.019196 
	C204.930695,156.999268 206.969391,156.988037 209.250015,157.228333 
	C211.868454,159.492569 214.244965,161.505295 216.599487,163.499405 
	C218.896194,161.741409 221.955017,159.400070 225.013840,157.058731 
	C236.175034,156.791840 239.791702,159.715134 239.803314,169.858887 
	C237.627960,172.308075 235.637772,174.060852 233.302979,175.857880 
	C230.636154,176.932587 228.313934,177.963043 225.995850,178.996750 
	C226.000000,179.000000 225.995514,178.990723 225.751190,179.018799 
	C225.506882,179.046875 225.052322,179.234756 224.762390,179.296280 
	C223.851898,179.842148 223.231308,180.326477 222.293030,180.908264 
	C217.087204,183.152878 215.552490,187.142517 215.757385,192.155411 
	C215.877625,195.097260 215.850250,198.045135 215.846054,201.330704 
	C215.835022,202.126846 215.867233,202.582596 215.844391,203.431412 
	C215.824188,204.880310 215.859039,205.936142 215.847672,207.325256 
	C215.831619,208.105026 215.861786,208.551498 215.891953,208.997971 
	C215.852173,209.444305 215.812408,209.890625 215.772812,211.067566 
	C215.805344,212.864090 215.837692,213.930008 215.870056,214.995926 
	C215.356369,220.582962 216.593872,226.581375 211.857971,231.525192 
z"/>
<path fill="#E784C6" opacity="1.000000" stroke="none" 
	d="
M233.647583,175.813629 
	C235.637772,174.060852 237.627960,172.308075 239.800476,170.276184 
	C250.790878,175.568924 261.352783,181.709564 272.486816,186.528198 
	C281.011475,190.217514 290.258972,192.236649 299.592468,194.999634 
	C299.513702,196.845703 299.027374,198.690781 297.869629,200.769852 
	C296.133606,201.008667 295.069061,201.013489 293.779968,200.721634 
	C283.828339,197.272736 273.852966,194.715286 264.448456,190.790054 
	C256.138367,187.321609 248.265686,182.643936 240.626694,177.823746 
	C238.221573,176.306137 236.385742,175.136414 233.647583,175.813629 
z"/>
<path fill="#E68BC0" opacity="1.000000" stroke="none" 
	d="
M215.002441,145.002777 
	C215.365189,137.940277 215.163132,130.654816 222.693176,126.150757 
	C225.643890,129.434708 228.287170,132.868332 230.964920,136.650360 
	C224.860291,137.421295 223.642349,138.590286 223.060471,145.192535 
	C222.830383,147.803375 223.007721,150.450150 222.627869,153.532074 
	C221.419495,153.187653 220.466721,152.481339 219.769348,151.577881 
	C218.115952,149.435928 216.583664,147.200455 215.002441,145.002777 
z"/>
<path fill="#E784C6" opacity="1.000000" stroke="none" 
	d="
M214.657837,145.036041 
	C216.583664,147.200455 218.115952,149.435928 219.769348,151.577881 
	C220.466721,152.481339 221.419495,153.187653 222.627472,153.990875 
	C223.664413,154.778610 224.330063,155.559052 225.004776,156.699112 
	C221.955017,159.400070 218.896194,161.741409 216.599487,163.499405 
	C214.244965,161.505295 211.868454,159.492569 209.286469,156.862000 
	C209.055939,153.497650 209.030869,150.751129 209.005798,148.004608 
	C210.774948,147.026184 212.544098,146.047760 214.657837,145.036041 
z"/>
<path fill="#E560E9" opacity="1.000000" stroke="none" 
	d="
M215.893890,206.991974 
	C215.859039,205.936142 215.824188,204.880310 216.107162,203.267471 
	C216.615845,202.141525 216.806702,201.572601 217.451782,201.002411 
	C223.723465,202.000153 229.527084,203.090347 235.361740,203.976105 
	C243.521240,205.214737 251.751678,206.038849 259.864471,207.518951 
	C269.907501,209.351166 279.409424,214.128922 289.998779,212.993896 
	C290.318939,213.464218 290.639130,213.934540 290.978882,214.703949 
	C289.474670,220.511856 285.694916,218.811935 281.955811,218.023102 
	C274.906769,216.535995 267.845123,214.946854 260.706055,214.084442 
	C248.508118,212.610901 236.065933,212.908829 224.278183,208.646454 
	C223.429031,208.339417 222.407776,208.508255 221.233032,208.728683 
	C220.249649,209.001022 219.499756,209.000504 218.329468,208.671158 
	C217.237335,207.892197 216.565613,207.442093 215.893890,206.991974 
z"/>
<path fill="#E55BF1" opacity="1.000000" stroke="none" 
	d="
M216.263992,214.988586 
	C215.837692,213.930008 215.805344,212.864090 215.823364,211.400909 
	C216.883881,211.538605 217.894012,212.073563 218.904144,212.608521 
	C218.155411,213.399429 217.406677,214.190338 216.263992,214.988586 
z"/>
<path fill="#E55BF1" opacity="1.000000" stroke="none" 
	d="
M271.201477,226.204865 
	C271.803925,226.568726 272.106873,226.995331 272.409851,227.421936 
	C271.962280,227.536865 271.514709,227.651794 271.067139,227.766724 
	C271.012085,227.267014 270.957031,226.767319 271.201477,226.204865 
z"/>
<path fill="#E560E9" opacity="1.000000" stroke="none" 
	d="
M281.379730,223.997162 
	C281.979126,223.793274 282.953644,223.589600 283.967285,223.690521 
	C283.255920,223.995880 282.505371,223.996628 281.379730,223.997162 
z"/>
<path fill="#E252F4" opacity="1.000000" stroke="none" 
	d="
M231.533478,251.392029 
	C231.649689,250.941559 231.933411,250.665359 232.235184,250.410538 
	C232.242966,250.403976 232.448441,250.631531 232.561707,250.749893 
	C232.275574,251.022964 231.989456,251.296036 231.533478,251.392029 
z"/>
<path fill="#E55BF1" opacity="1.000000" stroke="none" 
	d="
M215.847672,207.325272 
	C216.565613,207.442093 217.237335,207.892197 217.954529,208.671158 
	C217.531982,208.999863 217.063965,208.999741 216.243958,208.998779 
	C215.861786,208.551498 215.831619,208.105026 215.847672,207.325272 
z"/>
<path fill="#FEFFFF" opacity="1.000000" stroke="none" 
	d="
M125.590935,165.388138 
	C125.536827,163.888321 125.581818,162.781845 125.555008,161.136566 
	C125.483200,160.597763 125.318207,160.294495 125.407845,159.946320 
	C125.437363,159.366104 125.377243,159.134079 125.317116,158.902054 
	C125.217857,154.552704 125.118599,150.203339 124.957886,145.424225 
	C124.936035,143.925735 124.975639,142.857040 124.953156,141.391113 
	C124.930565,140.234528 124.970078,139.475159 125.005760,137.931259 
	C126.932159,126.535042 127.061615,124.312248 138.540024,124.886742 
	C139.035416,124.911537 139.529739,124.957336 140.236206,125.260353 
	C146.664703,129.092331 145.814087,135.265884 146.090591,141.373993 
	C146.067886,142.508347 146.112823,143.267212 146.111481,144.261429 
	C146.065186,144.496796 146.169952,144.964966 146.104736,145.406754 
	C146.078201,148.226303 146.116898,150.604050 146.086853,153.420685 
	C146.018082,156.587051 146.018082,159.314560 146.018082,161.457657 
	C151.110962,159.632690 156.067795,157.856476 161.024628,156.080261 
	C161.465927,156.106415 161.907242,156.132553 162.676453,156.104126 
	C164.701462,156.107635 166.398575,156.165726 168.519135,156.253845 
	C170.719025,156.792496 172.495468,157.301147 174.629547,157.809525 
	C176.057098,158.194122 177.126999,158.578995 178.533722,159.008057 
	C180.671600,160.378418 182.472672,161.704605 184.777710,163.388733 
	C186.637939,165.959641 188.641464,168.016113 189.221878,170.416672 
	C190.626846,176.227600 191.368408,182.198914 192.308380,188.561584 
	C192.300583,196.679031 192.361801,204.340469 192.423035,212.001923 
	C192.334625,215.709656 192.246216,219.417374 192.125183,223.796753 
	C192.092560,224.468414 192.147552,224.901474 192.147552,224.901474 
	C189.164047,233.544464 182.354202,235.952759 174.379074,230.680237 
	C173.636673,229.536911 173.261261,228.768799 172.885864,228.000702 
	C172.557068,221.978165 172.228256,215.955643 171.888550,209.102432 
	C171.828415,207.523544 171.779190,206.775345 171.805267,205.609604 
	C171.833450,203.789291 171.786331,202.386490 171.809189,200.522202 
	C171.638260,194.344528 171.397354,188.628357 171.123657,182.557892 
	C170.032715,180.473740 168.974518,178.743851 167.714722,176.729095 
	C166.893753,176.236649 166.189362,176.154968 165.667709,175.802704 
	C156.976547,169.933868 147.307693,174.460358 146.106796,185.403259 
	C146.090927,188.251434 146.132568,190.652847 146.121994,193.504730 
	C146.097031,197.306152 146.124283,200.657104 146.097839,204.421631 
	C146.085190,206.221817 146.126205,207.608429 146.104828,209.457703 
	C146.080353,214.617691 146.118301,219.315018 146.023880,224.344421 
	C143.928055,227.451889 141.964569,230.227264 140.001083,233.002640 
	C134.003601,233.865097 128.763977,233.070587 125.948242,226.325958 
	C125.774048,218.972244 125.751686,211.937149 125.625397,204.440674 
	C125.584587,201.941498 125.647720,199.903717 125.711426,196.991150 
	C125.620575,192.444153 125.529152,188.771912 125.580750,184.673126 
	C125.634445,182.472000 125.545128,180.697433 125.455795,178.922867 
	C125.540375,175.910934 125.624962,172.898987 125.604660,169.443085 
	C125.563187,167.926575 125.626610,166.854034 125.590935,165.388138 
z"/>
<path fill="#E04FEF" opacity="1.000000" stroke="none" 
	d="
M139.960449,233.357666 
	C141.964569,230.227264 143.928055,227.451889 146.373810,224.413666 
	C148.435776,225.097839 149.914856,226.328506 151.616364,226.931961 
	C155.013229,228.136673 158.532120,228.997284 162.000610,230.000000 
	C166.310440,231.672974 170.658325,233.256851 174.907349,235.072159 
	C176.214279,235.630554 180.378586,234.609467 177.183044,238.730591 
	C170.239853,240.408218 163.491562,241.881256 156.713974,243.204315 
	C152.353027,244.055634 147.949036,244.686539 142.865723,245.707809 
	C140.778091,245.999268 139.389038,245.999146 138.000000,245.999023 
	C136.004684,244.244568 134.009384,242.490128 132.007050,240.367538 
	C133.509598,239.928711 135.019196,239.858032 136.528778,239.787369 
	C136.629837,239.336685 136.730881,238.886002 136.831940,238.435318 
	C135.419937,237.716812 134.007935,236.998322 131.133331,235.535553 
	C133.733887,235.361710 134.994431,235.437531 136.169296,235.155914 
	C137.460587,234.846390 138.673004,234.207855 139.960449,233.357666 
z"/>
<path fill="#E455F1" opacity="1.000000" stroke="none" 
	d="
M162.414246,229.999939 
	C158.532120,228.997284 155.013229,228.136673 151.616364,226.931961 
	C149.914856,226.328506 148.435776,225.097839 146.506165,224.081604 
	C146.118301,219.315018 146.080353,214.617691 146.422516,209.398712 
	C149.143936,208.917618 151.489044,208.887711 153.825821,209.012939 
	C159.219040,209.301987 164.608246,209.666260 169.999069,210.000031 
	C169.956406,214.618469 170.115952,219.250320 169.810852,223.851349 
	C169.537842,227.968628 167.560562,230.685455 162.414246,229.999939 
z"/>
<path fill="#E457F5" opacity="1.000000" stroke="none" 
	d="
M170.137421,209.771210 
	C164.608246,209.666260 159.219040,209.301987 153.825821,209.012939 
	C151.489044,208.887711 149.143936,208.917618 146.484924,208.936066 
	C146.126205,207.608429 146.085190,206.221817 146.479294,204.421082 
	C149.043579,204.007950 151.188644,203.841415 153.298920,204.041550 
	C159.450058,204.624863 165.587296,205.354736 171.729980,206.027130 
	C171.779190,206.775345 171.828415,207.523544 171.808716,208.642090 
	C171.251801,209.189072 170.763794,209.365753 170.137421,209.771210 
z"/>
<path fill="#B66DF0" opacity="1.000000" stroke="none" 
	d="
M192.721115,211.997971 
	C192.361801,204.340469 192.300583,196.679031 192.612061,188.536835 
	C193.599823,188.052689 194.214890,188.049286 194.829956,188.045898 
	C194.867050,195.713028 194.904144,203.380173 194.877930,211.508118 
	C194.216141,211.977280 193.617676,211.985641 192.721115,211.997971 
z"/>
<path fill="#E455F1" opacity="1.000000" stroke="none" 
	d="
M172.565369,228.003601 
	C173.261261,228.768799 173.636673,229.536911 174.066986,230.627762 
	C172.991318,230.362091 171.860733,229.773666 170.730164,229.185242 
	C171.235062,228.792313 171.739960,228.399414 172.565369,228.003601 
z"/>
<path fill="#E04FEF" opacity="1.000000" stroke="none" 
	d="
M183.391968,236.953659 
	C183.789703,236.710983 184.185516,236.712677 184.579117,236.742905 
	C184.590057,236.743744 184.577499,237.050369 184.575897,237.214401 
	C184.180496,237.210266 183.785126,237.206131 183.391968,236.953659 
z"/>
<path fill="#C296DD" opacity="1.000000" stroke="none" 
	d="
M192.279282,224.832047 
	C192.147552,224.901474 192.092560,224.468414 192.155579,224.260529 
	C192.540588,224.234726 192.604721,224.471375 192.279282,224.832047 
z"/>
<path fill="#D948EF" opacity="1.000000" stroke="none" 
	d="
M137.808578,246.270355 
	C139.389038,245.999146 140.778091,245.999268 142.583862,245.999084 
	C149.536484,247.979248 155.998383,250.281937 162.638916,251.806503 
	C166.045105,252.588531 169.775177,251.882736 173.348831,252.056168 
	C174.526230,252.113297 175.672119,252.819550 176.915588,253.613892 
	C173.564270,254.350830 170.135330,254.775009 166.694168,255.040817 
	C157.759094,255.731003 148.818619,256.351593 139.029938,257.000061 
	C134.422226,256.614807 130.244217,257.002167 128.998779,252.002441 
	C131.871567,250.182190 134.744370,248.361938 137.808578,246.270355 
z"/>
<path fill="#CB47ED" opacity="1.000000" stroke="none" 
	d="
M128.597443,252.001617 
	C130.244217,257.002167 134.422226,256.614807 138.590393,257.000092 
	C139.736160,261.468719 143.740448,260.417938 146.755798,261.725220 
	C145.049179,262.659302 143.138000,263.679565 141.139496,263.896973 
	C137.299347,264.314697 133.409714,264.277344 129.271103,264.716187 
	C124.609024,263.671173 120.216438,262.338654 115.418335,261.004303 
	C112.371437,258.351837 109.755356,255.675262 107.074570,253.065140 
	C106.169991,252.184402 105.101318,251.472198 104.061569,250.341019 
	C110.679611,245.998886 117.079086,248.396133 123.506409,250.754028 
	C125.018600,251.308762 126.630234,251.592438 128.597443,252.001617 
z"/>
<path fill="#E35AE9" opacity="1.000000" stroke="none" 
	d="
M124.001099,231.999146 
	C124.123360,232.141342 124.244530,232.284378 124.365692,232.427414 
	C124.279671,232.378082 124.193649,232.328766 124.052956,232.140869 
	C123.998276,232.002319 124.000000,232.000000 124.001099,231.999146 
z"/>
<path fill="#12F5FD" opacity="1.000000" stroke="none" 
	d="
M140.024567,124.993355 
	C139.529739,124.957336 139.035416,124.911537 138.540024,124.886742 
	C127.061615,124.312248 126.932159,126.535042 124.940384,137.555527 
	C124.022423,135.891403 123.004990,134.589371 120.378204,133.864517 
	C112.451706,131.677185 107.725395,125.199463 103.112518,119.002808 
	C100.265190,115.177887 98.035370,110.846794 95.891212,106.561363 
	C94.476906,103.734657 94.348122,101.768898 98.397240,99.725365 
	C112.542160,92.586609 124.064865,100.187973 135.655609,105.869965 
	C138.495178,107.261986 139.479034,112.781403 140.908340,116.557564 
	C141.578033,118.326851 141.278442,120.463005 141.595352,122.979500 
	C141.189896,124.015182 140.607239,124.504272 140.024567,124.993355 
M128.913528,107.544090 
	C123.990227,106.324249 119.095581,104.967712 114.134567,103.927780 
	C110.160912,103.094826 108.019531,105.229500 109.243309,109.105469 
	C111.713615,116.929436 116.211472,123.250374 123.197731,126.556549 
	C126.210663,124.626572 128.646637,123.066177 131.082596,121.505783 
	C131.723938,121.657295 132.365265,121.808815 133.006592,121.960335 
	C131.842453,117.324898 130.678299,112.689468 128.913528,107.544090 
z"/>
<path fill="#2BE3FD" opacity="1.000000" stroke="none" 
	d="
M146.155609,152.981812 
	C146.116898,150.604050 146.078201,148.226303 146.245850,145.317780 
	C146.642014,144.450668 146.543869,144.197006 146.157776,144.026062 
	C146.112823,143.267212 146.067886,142.508347 146.491638,141.355286 
	C147.638107,139.901947 148.771744,138.895493 148.901489,137.772995 
	C149.197235,135.214325 149.000793,132.598740 149.171951,129.916321 
	C149.226532,129.551407 149.113495,129.276428 148.741837,128.771088 
	C148.670578,127.263275 148.774246,125.966927 149.058289,124.711380 
	C151.849899,112.372139 142.791260,99.186951 129.997650,97.005798 
	C128.932480,97.003166 127.867302,97.000534 126.402817,96.997269 
	C123.642189,94.993759 121.540138,92.466034 118.846680,91.135498 
	C116.149025,89.802887 112.860786,89.665840 109.422180,89.003754 
	C111.194733,87.898148 113.292191,86.561890 115.573738,85.731392 
	C123.096306,82.993164 130.661484,80.364754 138.268311,77.871155 
	C139.883316,77.341743 141.743500,77.560272 143.577087,78.032349 
	C139.054199,80.670029 134.339783,82.507469 129.877472,84.829391 
	C127.431374,86.102203 125.410721,88.192642 123.198227,89.914406 
	C126.130318,90.940674 129.062408,91.966949 131.994507,92.993217 
	C140.799667,96.584457 147.293045,102.836632 152.687378,111.324310 
	C152.449997,125.251678 151.907181,138.560181 151.365799,151.833755 
	C149.279175,152.293549 147.717392,152.637680 146.155609,152.981812 
z"/>
<path fill="#21EDFE" opacity="1.000000" stroke="none" 
	d="
M130.048096,97.346046 
	C142.791260,99.186951 151.849899,112.372139 149.058289,124.711380 
	C148.774246,125.966927 148.670578,127.263275 148.742279,129.022278 
	C149.002335,129.671326 149.003342,129.838806 149.004349,130.006287 
	C149.000793,132.598740 149.197235,135.214325 148.901489,137.772995 
	C148.771744,138.895493 147.638107,139.901947 146.559265,140.979767 
	C145.814087,135.265884 146.664703,129.092331 140.236206,125.260353 
	C140.607239,124.504272 141.189896,124.015182 141.889801,123.259644 
	C146.323883,119.970253 146.152603,115.592567 143.808365,112.075661 
	C140.974564,107.824303 136.907745,104.389549 133.333908,100.640129 
	C132.328781,99.585617 131.180939,98.667152 130.048096,97.346046 
M144.589584,123.517838 
	C144.589584,123.517838 144.476532,123.585587 144.589584,123.517838 
z"/>
<path fill="#8983F7" opacity="1.000000" stroke="none" 
	d="
M120.947174,288.613525 
	C120.016464,288.192505 119.053024,287.439941 118.064445,286.351349 
	C118.997688,286.770874 119.956062,287.526428 120.947174,288.613525 
z"/>
<path fill="#C296DD" opacity="1.000000" stroke="none" 
	d="
M194.902542,187.578354 
	C194.214890,188.049286 193.599823,188.052689 192.681076,188.080841 
	C191.368408,182.198914 190.626846,176.227600 189.221878,170.416672 
	C188.641464,168.016113 186.637939,165.959641 185.118378,163.455170 
	C183.752518,155.785843 186.889206,149.128891 188.413864,142.201340 
	C188.727066,140.778305 188.816559,139.306030 189.010376,137.433105 
	C190.074890,137.007874 191.138184,137.005981 192.600433,137.002960 
	C193.968445,140.265030 194.937515,143.528229 196.031525,147.212234 
	C198.004013,146.217102 199.140320,145.643829 200.621521,145.031235 
	C201.143188,145.550705 201.319962,146.109497 201.744202,147.269135 
	C202.000809,150.922623 202.009918,153.975266 202.019043,157.027893 
	C196.591583,160.212448 194.531616,164.933868 194.934113,171.180786 
	C195.274887,176.469727 194.985611,181.799240 194.902542,187.578354 
z"/>
<path fill="#DE8BCF" opacity="1.000000" stroke="none" 
	d="
M202.455521,157.019196 
	C202.009918,153.975266 202.000809,150.922623 201.991272,147.436981 
	C203.431168,146.358444 204.871475,145.712906 206.655609,145.033371 
	C207.474930,145.906677 207.950470,146.813980 208.715912,147.862946 
	C209.030869,150.751129 209.055939,153.497650 209.044540,156.610474 
	C206.969391,156.988037 204.930695,156.999268 202.455521,157.019196 
z"/>
<path fill="#3EDEF6" opacity="1.000000" stroke="none" 
	d="
M146.086853,153.420685 
	C147.717392,152.637680 149.279175,152.293549 151.365799,151.833755 
	C151.907181,138.560181 152.449997,125.251678 152.990829,111.476273 
	C153.580048,110.517532 154.171280,110.025696 155.259933,109.335220 
	C156.499268,110.512138 157.909851,111.902847 157.879089,113.260902 
	C157.588348,126.098602 157.016022,138.929718 156.653381,151.766357 
	C156.623428,152.826752 157.535736,153.913773 158.010239,154.988419 
	C158.885132,155.166397 159.760040,155.344376 160.829773,155.801300 
	C156.067795,157.856476 151.110962,159.632690 146.018082,161.457657 
	C146.018082,159.314560 146.018082,156.587051 146.086853,153.420685 
z"/>
<path fill="#4BD9F3" opacity="1.000000" stroke="none" 
	d="
M158.197296,154.735291 
	C157.535736,153.913773 156.623428,152.826752 156.653381,151.766357 
	C157.016022,138.929718 157.588348,126.098602 157.879089,113.260902 
	C157.909851,111.902847 156.499268,110.512138 155.381134,109.067673 
	C154.960739,102.370094 149.728973,98.919601 145.763947,95.067184 
	C140.722595,90.169014 140.496628,88.947952 146.779846,85.613892 
	C148.962173,84.455894 151.123260,83.257874 153.652435,82.050652 
	C154.500214,83.025429 154.989594,84.027679 155.596558,85.270706 
	C154.173004,85.982582 152.625107,86.535385 151.331924,87.448784 
	C148.530334,89.427612 148.289444,91.799866 150.210236,94.737015 
	C153.788620,100.208832 157.208420,105.789421 160.510986,111.431984 
	C161.118561,112.470055 160.976868,114.015282 160.981064,115.327049 
	C161.014587,125.823586 161.167557,136.324844 160.880707,146.813644 
	C160.810226,149.390640 159.256302,151.927078 158.197296,154.735291 
z"/>
<path fill="#AA50EF" opacity="1.000000" stroke="none" 
	d="
M89.322952,257.798798 
	C89.193474,257.848969 89.147171,257.508667 89.174179,257.340546 
	C89.201180,257.172424 89.524605,257.389771 89.524605,257.389771 
	C89.524605,257.389771 89.452423,257.748627 89.322952,257.798798 
z"/>
<path fill="#8983F7" opacity="1.000000" stroke="none" 
	d="
M125.437729,185.099686 
	C125.529152,188.771912 125.620575,192.444153 125.596954,196.569092 
	C115.274803,196.679337 105.062263,196.440216 94.865402,195.903427 
	C92.926414,195.801376 91.049461,194.521225 89.107117,193.408096 
	C95.074142,193.024948 101.077942,193.018341 107.552902,193.014694 
	C109.506699,193.126480 110.989326,193.235321 112.471962,193.344162 
	C112.167908,192.660431 111.863861,191.976715 111.317032,190.770630 
	C112.691566,189.165222 114.174484,187.659302 115.956062,187.093140 
	C119.018524,186.119965 122.267212,185.732819 125.437729,185.099686 
z"/>
<path fill="#8B9BF8" opacity="1.000000" stroke="none" 
	d="
M125.580750,184.673126 
	C122.267212,185.732819 119.018524,186.119965 115.956062,187.093140 
	C114.174484,187.659302 112.691566,189.165222 111.018784,190.616211 
	C110.056267,188.559723 108.394386,186.086273 108.547447,183.730743 
	C108.629036,182.475174 111.712883,180.916260 113.680893,180.391602 
	C117.144325,179.468292 120.791229,179.233246 124.695526,178.791321 
	C125.029739,178.872650 125.242882,178.914108 125.349342,178.918488 
	C125.545128,180.697433 125.634445,182.472000 125.580750,184.673126 
z"/>
<path fill="#37D9FD" opacity="1.000000" stroke="none" 
	d="
M132.000580,92.624756 
	C129.062408,91.966949 126.130318,90.940674 123.198227,89.914406 
	C125.410721,88.192642 127.431374,86.102203 129.877472,84.829391 
	C134.339783,82.507469 139.054199,80.670029 143.831970,78.310959 
	C145.420822,77.662346 146.841156,77.333260 148.630829,76.999847 
	C149.103592,77.322472 149.293625,77.587288 149.791107,77.903099 
	C146.454422,80.358070 142.740555,82.498863 139.388763,85.105278 
	C136.700211,87.195953 134.450882,89.851448 132.000580,92.624756 
z"/>
<path fill="#43CFFC" opacity="1.000000" stroke="none" 
	d="
M125.099533,158.925720 
	C125.377243,159.134079 125.437363,159.366104 125.369415,160.025574 
	C125.241348,160.453003 125.165138,160.797424 125.165138,160.797424 
	C124.793076,160.397232 124.421013,159.997025 124.026917,159.298920 
	C124.298126,158.998657 124.590477,158.981461 125.099533,158.925720 
z"/>
<path fill="#2BE3FD" opacity="1.000000" stroke="none" 
	d="
M125.200500,160.826141 
	C125.165138,160.797424 125.241348,160.453003 125.279778,160.373749 
	C125.318207,160.294495 125.483200,160.597763 125.399323,160.748505 
	C125.315445,160.899261 125.235870,160.854874 125.200500,160.826141 
z"/>
<path fill="#65AEFA" opacity="1.000000" stroke="none" 
	d="
M129.136917,307.232910 
	C129.342453,307.128845 129.595200,307.317200 129.906708,307.789917 
	C129.699310,307.903839 129.438858,307.720825 129.136917,307.232910 
z"/>
<path fill="#E76FD6" opacity="1.000000" stroke="none" 
	d="
M294.004486,201.018326 
	C295.069061,201.013489 296.133606,201.008667 297.597260,201.001312 
	C297.998535,201.442871 298.000732,201.886963 298.009399,202.664001 
	C297.539581,204.852310 297.063324,206.707657 296.302795,208.776184 
	C293.971344,208.994019 291.924225,208.998688 289.015381,209.001938 
	C284.474365,208.192947 280.702423,207.669632 277.138397,206.508331 
	C272.312134,204.935730 267.776703,201.874207 262.882568,201.230637 
	C252.792892,199.903885 244.233109,195.016739 235.476227,190.723724 
	C230.712677,188.388412 226.869186,184.176392 222.610733,180.810822 
	C223.231308,180.326477 223.851898,179.842148 224.877151,179.422104 
	C225.519730,179.321182 225.757614,179.155945 225.995514,178.990723 
	C225.995514,178.990723 226.000000,179.000000 226.397125,179.001434 
	C228.895340,180.009384 231.180130,180.751556 233.068527,182.064072 
	C248.778046,192.982941 267.042847,197.804245 284.861694,203.570999 
	C287.554718,204.442551 292.269928,206.396881 294.004486,201.018326 
z"/>
<path fill="#E667E0" opacity="1.000000" stroke="none" 
	d="
M222.293030,180.908264 
	C226.869186,184.176392 230.712677,188.388412 235.476227,190.723724 
	C244.233109,195.016739 252.792892,199.903885 262.882568,201.230637 
	C267.776703,201.874207 272.312134,204.935730 277.138397,206.508331 
	C280.702423,207.669632 284.474365,208.192947 288.577301,209.002655 
	C289.332336,210.101501 289.663727,211.198196 289.996948,212.644409 
	C279.409424,214.128922 269.907501,209.351166 259.864471,207.518951 
	C251.751678,206.038849 243.521240,205.214737 235.361740,203.976105 
	C229.527084,203.090347 223.723465,202.000153 217.174713,200.999588 
	C216.258713,200.995438 216.073990,200.992874 215.889282,200.990311 
	C215.850250,198.045135 215.877625,195.097260 215.757385,192.155411 
	C215.552490,187.142517 217.087204,183.152878 222.293030,180.908264 
z"/>
<path fill="#E778CD" opacity="1.000000" stroke="none" 
	d="
M293.779968,200.721634 
	C292.269928,206.396881 287.554718,204.442551 284.861694,203.570999 
	C267.042847,197.804245 248.778046,192.982941 233.068527,182.064072 
	C231.180130,180.751556 228.895340,180.009384 226.392990,178.998169 
	C228.313934,177.963043 230.636154,176.932587 233.302979,175.857880 
	C236.385742,175.136414 238.221573,176.306137 240.626694,177.823746 
	C248.265686,182.643936 256.138367,187.321609 264.448456,190.790054 
	C273.852966,194.715286 283.828339,197.272736 293.779968,200.721634 
z"/>
<path fill="#E55BF1" opacity="1.000000" stroke="none" 
	d="
M215.846039,201.330704 
	C216.073990,200.992874 216.258713,200.995438 216.720490,201.000824 
	C216.806702,201.572601 216.615845,202.141525 216.162201,202.874405 
	C215.867233,202.582596 215.835022,202.126846 215.846039,201.330704 
z"/>
<path fill="#E778CD" opacity="1.000000" stroke="none" 
	d="
M225.751190,179.018799 
	C225.757614,179.155945 225.519730,179.321182 225.167084,179.360580 
	C225.052322,179.234756 225.506882,179.046875 225.751190,179.018799 
z"/>
<path fill="#8B9BF8" opacity="1.000000" stroke="none" 
	d="
M146.174194,193.054245 
	C146.132568,190.652847 146.090927,188.251434 146.318298,185.412888 
	C146.587326,184.975739 147.011078,184.986343 147.018021,185.393280 
	C148.019730,186.855148 148.933685,188.708069 150.024109,188.818512 
	C153.585800,189.179245 157.357208,189.519409 160.774445,188.711136 
	C164.603775,187.805389 169.365997,187.774704 171.156433,182.912186 
	C171.397354,188.628357 171.638260,194.344528 171.482803,200.451569 
	C168.566177,200.331497 165.964890,200.064774 163.541763,199.261002 
	C157.708176,197.325928 151.958008,195.139359 146.174194,193.054245 
z"/>
<path fill="#B66DF0" opacity="1.000000" stroke="none" 
	d="
M146.121994,193.504730 
	C151.958008,195.139359 157.708176,197.325928 163.541763,199.261002 
	C165.964890,200.064774 168.566177,200.331497 171.412827,200.913071 
	C171.786331,202.386490 171.833450,203.789291 171.805267,205.609604 
	C165.587296,205.354736 159.450058,204.624863 153.298920,204.041550 
	C151.188644,203.841415 149.043579,204.007950 146.532959,204.007507 
	C146.124283,200.657104 146.097031,197.306152 146.121994,193.504730 
z"/>
<path fill="#65AEFA" opacity="1.000000" stroke="none" 
	d="
M147.011078,184.986343 
	C147.011078,184.986343 146.587326,184.975739 146.375824,184.966095 
	C147.307693,174.460358 156.976547,169.933868 165.667709,175.802704 
	C166.189362,176.154968 166.893753,176.236649 167.380508,176.776917 
	C163.481567,182.064957 158.085953,184.525650 152.349670,183.504608 
	C149.608475,183.016663 148.435989,183.053345 147.011078,184.986343 
z"/>
<path fill="#73A4FA" opacity="1.000000" stroke="none" 
	d="
M147.018021,185.393280 
	C148.435989,183.053345 149.608475,183.016663 152.349670,183.504608 
	C158.085953,184.525650 163.481567,182.064957 167.582123,177.061798 
	C168.974518,178.743851 170.032715,180.473740 171.123657,182.557892 
	C169.365997,187.774704 164.603775,187.805389 160.774445,188.711136 
	C157.357208,189.519409 153.585800,189.179245 150.024109,188.818512 
	C148.933685,188.708069 148.019730,186.855148 147.018021,185.393280 
z"/>
<path fill="#21EDFE" opacity="1.000000" stroke="none" 
	d="
M146.111481,144.261429 
	C146.543869,144.197006 146.642014,144.450668 146.311081,144.876007 
	C146.169952,144.964966 146.065186,144.496796 146.111481,144.261429 
z"/>
<path fill="#05FCFE" opacity="1.000000" stroke="none" 
	d="
M129.213837,107.799065 
	C130.678299,112.689468 131.842453,117.324898 133.006592,121.960335 
	C132.365265,121.808815 131.723938,121.657295 131.082596,121.505783 
	C128.646637,123.066177 126.210663,124.626572 123.197731,126.556549 
	C116.211472,123.250374 111.713615,116.929436 109.243309,109.105469 
	C108.019531,105.229500 110.160912,103.094826 114.134567,103.927780 
	C119.095581,104.967712 123.990227,106.324249 129.213837,107.799065 
z"/>
<path fill="#3EDEF6" opacity="1.000000" stroke="none" 
	d="
M149.171951,129.916321 
	C149.003342,129.838806 149.002335,129.671326 149.000916,129.252655 
	C149.113495,129.276428 149.226532,129.551407 149.171951,129.916321 
z"/>
<path fill="#1BF3FE" opacity="1.000000" stroke="none" 
	d="
M144.533051,123.551712 
	C144.476532,123.585587 144.589584,123.517838 144.533051,123.551712 
z"/>
</svg>